<mxfile host="app.diagrams.net" agent="Mozilla/5.0 (Windows NT 10.0; Win64; x64) AppleWebKit/537.36 (KHTML, like Gecko) Chrome/138.0.0.0 Safari/537.36 Edg/138.0.0.0" version="28.0.7">
  <diagram name="Page-1" id="SAX3QMWb-zu-lCDHHCRd">
    <mxGraphModel dx="1176" dy="1755" grid="1" gridSize="10" guides="1" tooltips="1" connect="1" arrows="1" fold="1" page="1" pageScale="1" pageWidth="850" pageHeight="1100" math="0" shadow="0">
      <root>
        <mxCell id="0" />
        <mxCell id="1" parent="0" />
        <mxCell id="7tp3j4QF68E535isIezD-1" value="COURSE" style="rounded=0;whiteSpace=wrap;html=1;" parent="1" vertex="1">
          <mxGeometry x="520" y="170" width="120" height="60" as="geometry" />
        </mxCell>
        <mxCell id="7tp3j4QF68E535isIezD-2" value="STUDENT" style="rounded=0;whiteSpace=wrap;html=1;" parent="1" vertex="1">
          <mxGeometry x="160" y="170" width="120" height="60" as="geometry" />
        </mxCell>
        <mxCell id="7tp3j4QF68E535isIezD-4" value="register" style="rhombus;whiteSpace=wrap;html=1;" parent="1" vertex="1">
          <mxGeometry x="360" y="160" width="80" height="80" as="geometry" />
        </mxCell>
        <mxCell id="7tp3j4QF68E535isIezD-5" value="" style="endArrow=ERzeroToMany;html=1;rounded=0;exitX=1;exitY=0.5;exitDx=0;exitDy=0;endFill=0;" parent="1" edge="1">
          <mxGeometry width="50" height="50" relative="1" as="geometry">
            <mxPoint x="440" y="199.83" as="sourcePoint" />
            <mxPoint x="520" y="199.83" as="targetPoint" />
          </mxGeometry>
        </mxCell>
        <mxCell id="7tp3j4QF68E535isIezD-6" value="" style="endArrow=none;html=1;rounded=0;exitX=1;exitY=0.5;exitDx=0;exitDy=0;startArrow=ERzeroToMany;startFill=0;" parent="1" edge="1">
          <mxGeometry width="50" height="50" relative="1" as="geometry">
            <mxPoint x="280" y="199.86" as="sourcePoint" />
            <mxPoint x="360" y="199.86" as="targetPoint" />
          </mxGeometry>
        </mxCell>
        <mxCell id="7tp3j4QF68E535isIezD-10" value="BOOK COPY" style="rounded=0;whiteSpace=wrap;html=1;" parent="1" vertex="1">
          <mxGeometry x="520" y="290" width="120" height="60" as="geometry" />
        </mxCell>
        <mxCell id="7tp3j4QF68E535isIezD-11" value="BOOK" style="rounded=0;whiteSpace=wrap;html=1;" parent="1" vertex="1">
          <mxGeometry x="160" y="290" width="120" height="60" as="geometry" />
        </mxCell>
        <mxCell id="7tp3j4QF68E535isIezD-12" value="have" style="rhombus;whiteSpace=wrap;html=1;" parent="1" vertex="1">
          <mxGeometry x="360" y="280" width="80" height="80" as="geometry" />
        </mxCell>
        <mxCell id="7tp3j4QF68E535isIezD-13" value="" style="endArrow=ERzeroToMany;html=1;rounded=0;exitX=1;exitY=0.5;exitDx=0;exitDy=0;endFill=0;" parent="1" edge="1">
          <mxGeometry width="50" height="50" relative="1" as="geometry">
            <mxPoint x="440" y="319.83000000000004" as="sourcePoint" />
            <mxPoint x="520" y="320" as="targetPoint" />
          </mxGeometry>
        </mxCell>
        <mxCell id="7tp3j4QF68E535isIezD-14" value="" style="endArrow=none;html=1;rounded=0;exitX=1;exitY=0.5;exitDx=0;exitDy=0;startArrow=ERmandOne;startFill=0;" parent="1" edge="1">
          <mxGeometry width="50" height="50" relative="1" as="geometry">
            <mxPoint x="280" y="319.86" as="sourcePoint" />
            <mxPoint x="360" y="319.86" as="targetPoint" />
          </mxGeometry>
        </mxCell>
        <mxCell id="7tp3j4QF68E535isIezD-22" value="SECTION" style="rounded=0;whiteSpace=wrap;html=1;" parent="1" vertex="1">
          <mxGeometry x="520" y="410" width="120" height="60" as="geometry" />
        </mxCell>
        <mxCell id="7tp3j4QF68E535isIezD-23" value="COURSE" style="rounded=0;whiteSpace=wrap;html=1;" parent="1" vertex="1">
          <mxGeometry x="160" y="410" width="120" height="60" as="geometry" />
        </mxCell>
        <mxCell id="7tp3j4QF68E535isIezD-24" value="have" style="rhombus;whiteSpace=wrap;html=1;" parent="1" vertex="1">
          <mxGeometry x="360" y="400" width="80" height="80" as="geometry" />
        </mxCell>
        <mxCell id="7tp3j4QF68E535isIezD-25" value="" style="endArrow=ERoneToMany;html=1;rounded=0;exitX=1;exitY=0.5;exitDx=0;exitDy=0;endFill=0;" parent="1" edge="1">
          <mxGeometry width="50" height="50" relative="1" as="geometry">
            <mxPoint x="440" y="439.83000000000004" as="sourcePoint" />
            <mxPoint x="520" y="439.83000000000004" as="targetPoint" />
          </mxGeometry>
        </mxCell>
        <mxCell id="7tp3j4QF68E535isIezD-26" value="" style="endArrow=none;html=1;rounded=0;exitX=1;exitY=0.5;exitDx=0;exitDy=0;startArrow=ERmandOne;startFill=0;" parent="1" edge="1">
          <mxGeometry width="50" height="50" relative="1" as="geometry">
            <mxPoint x="280" y="439.86" as="sourcePoint" />
            <mxPoint x="360" y="439.86" as="targetPoint" />
          </mxGeometry>
        </mxCell>
        <mxCell id="7tp3j4QF68E535isIezD-32" value="ROOM" style="rounded=0;whiteSpace=wrap;html=1;" parent="1" vertex="1">
          <mxGeometry x="520" y="530" width="120" height="60" as="geometry" />
        </mxCell>
        <mxCell id="7tp3j4QF68E535isIezD-33" value="SECTION" style="rounded=0;whiteSpace=wrap;html=1;" parent="1" vertex="1">
          <mxGeometry x="160" y="530" width="120" height="60" as="geometry" />
        </mxCell>
        <mxCell id="7tp3j4QF68E535isIezD-34" value="scheduled" style="rhombus;whiteSpace=wrap;html=1;" parent="1" vertex="1">
          <mxGeometry x="360" y="520" width="80" height="80" as="geometry" />
        </mxCell>
        <mxCell id="7tp3j4QF68E535isIezD-35" value="" style="endArrow=ERmandOne;html=1;rounded=0;exitX=1;exitY=0.5;exitDx=0;exitDy=0;endFill=0;" parent="1" edge="1">
          <mxGeometry width="50" height="50" relative="1" as="geometry">
            <mxPoint x="440" y="559.83" as="sourcePoint" />
            <mxPoint x="520" y="559.83" as="targetPoint" />
          </mxGeometry>
        </mxCell>
        <mxCell id="7tp3j4QF68E535isIezD-36" value="" style="endArrow=none;html=1;rounded=0;exitX=1;exitY=0.5;exitDx=0;exitDy=0;startArrow=ERmandOne;startFill=0;" parent="1" edge="1">
          <mxGeometry width="50" height="50" relative="1" as="geometry">
            <mxPoint x="280" y="559.86" as="sourcePoint" />
            <mxPoint x="360" y="559.86" as="targetPoint" />
          </mxGeometry>
        </mxCell>
        <mxCell id="7tp3j4QF68E535isIezD-37" value="COURSE" style="rounded=0;whiteSpace=wrap;html=1;" parent="1" vertex="1">
          <mxGeometry x="520" y="650" width="120" height="60" as="geometry" />
        </mxCell>
        <mxCell id="7tp3j4QF68E535isIezD-38" value="INSTRUCTOR" style="rounded=0;whiteSpace=wrap;html=1;" parent="1" vertex="1">
          <mxGeometry x="160" y="650" width="120" height="60" as="geometry" />
        </mxCell>
        <mxCell id="7tp3j4QF68E535isIezD-39" value="have" style="rhombus;whiteSpace=wrap;html=1;" parent="1" vertex="1">
          <mxGeometry x="360" y="640" width="80" height="80" as="geometry" />
        </mxCell>
        <mxCell id="7tp3j4QF68E535isIezD-40" value="" style="endArrow=ERzeroToMany;html=1;rounded=0;exitX=1;exitY=0.5;exitDx=0;exitDy=0;endFill=0;" parent="1" edge="1">
          <mxGeometry width="50" height="50" relative="1" as="geometry">
            <mxPoint x="440" y="679.83" as="sourcePoint" />
            <mxPoint x="520" y="679.83" as="targetPoint" />
          </mxGeometry>
        </mxCell>
        <mxCell id="7tp3j4QF68E535isIezD-41" value="" style="endArrow=none;html=1;rounded=0;exitX=1;exitY=0.5;exitDx=0;exitDy=0;startArrow=ERoneToMany;startFill=0;" parent="1" edge="1">
          <mxGeometry width="50" height="50" relative="1" as="geometry">
            <mxPoint x="280" y="679.86" as="sourcePoint" />
            <mxPoint x="360" y="679.86" as="targetPoint" />
          </mxGeometry>
        </mxCell>
        <mxCell id="nEEwgD9YWX4Y2Av0-MTW-1" value="" style="rounded=0;whiteSpace=wrap;html=1;" parent="1" vertex="1">
          <mxGeometry x="1280" y="110" width="120" height="60" as="geometry" />
        </mxCell>
        <mxCell id="nEEwgD9YWX4Y2Av0-MTW-2" value="BOOK" style="rounded=0;whiteSpace=wrap;html=1;" parent="1" vertex="1">
          <mxGeometry x="920" y="110" width="120" height="60" as="geometry" />
        </mxCell>
        <mxCell id="nEEwgD9YWX4Y2Av0-MTW-4" value="" style="endArrow=ERoneToMany;html=1;rounded=0;endFill=0;entryX=0;entryY=0.5;entryDx=0;entryDy=0;" parent="1" target="nEEwgD9YWX4Y2Av0-MTW-1" edge="1">
          <mxGeometry width="50" height="50" relative="1" as="geometry">
            <mxPoint x="1200" y="140" as="sourcePoint" />
            <mxPoint x="1230" y="160" as="targetPoint" />
          </mxGeometry>
        </mxCell>
        <mxCell id="nEEwgD9YWX4Y2Av0-MTW-5" value="" style="endArrow=none;html=1;rounded=0;exitX=1;exitY=0.5;exitDx=0;exitDy=0;startArrow=ERzeroToMany;startFill=0;entryX=0;entryY=0.5;entryDx=0;entryDy=0;" parent="1" source="nEEwgD9YWX4Y2Av0-MTW-2" target="nEEwgD9YWX4Y2Av0-MTW-11" edge="1">
          <mxGeometry width="50" height="50" relative="1" as="geometry">
            <mxPoint x="1010" y="139.8" as="sourcePoint" />
            <mxPoint x="1080" y="140" as="targetPoint" />
          </mxGeometry>
        </mxCell>
        <mxCell id="nEEwgD9YWX4Y2Av0-MTW-6" value="" style="ellipse;whiteSpace=wrap;html=1;" parent="1" vertex="1">
          <mxGeometry x="1050" width="80" height="40" as="geometry" />
        </mxCell>
        <mxCell id="nEEwgD9YWX4Y2Av0-MTW-9" value="" style="rounded=0;whiteSpace=wrap;html=1;" parent="1" vertex="1">
          <mxGeometry x="920" y="340" width="120" height="60" as="geometry" />
        </mxCell>
        <mxCell id="nEEwgD9YWX4Y2Av0-MTW-10" value="CUSTOMER" style="rounded=0;whiteSpace=wrap;html=1;" parent="1" vertex="1">
          <mxGeometry x="1280" y="340" width="120" height="60" as="geometry" />
        </mxCell>
        <mxCell id="nEEwgD9YWX4Y2Av0-MTW-11" value="" style="rhombus;whiteSpace=wrap;html=1;" parent="1" vertex="1">
          <mxGeometry x="1120" y="100" width="80" height="80" as="geometry" />
        </mxCell>
        <mxCell id="nEEwgD9YWX4Y2Av0-MTW-12" value="price" style="ellipse;whiteSpace=wrap;html=1;" parent="1" vertex="1">
          <mxGeometry x="1055" y="5" width="70" height="30" as="geometry" />
        </mxCell>
        <mxCell id="nEEwgD9YWX4Y2Av0-MTW-14" value="stock&amp;nbsp;&lt;div&gt;quantity&lt;/div&gt;" style="ellipse;whiteSpace=wrap;html=1;" parent="1" vertex="1">
          <mxGeometry x="890" y="-50" width="80" height="40" as="geometry" />
        </mxCell>
        <mxCell id="nEEwgD9YWX4Y2Av0-MTW-15" value="placed" style="rhombus;whiteSpace=wrap;html=1;" parent="1" vertex="1">
          <mxGeometry x="1125" y="330" width="80" height="80" as="geometry" />
        </mxCell>
        <mxCell id="nEEwgD9YWX4Y2Av0-MTW-16" value="contain" style="rhombus;whiteSpace=wrap;html=1;" parent="1" vertex="1">
          <mxGeometry x="940" y="210" width="80" height="80" as="geometry" />
        </mxCell>
        <mxCell id="nEEwgD9YWX4Y2Av0-MTW-17" value="" style="endArrow=none;html=1;rounded=0;exitX=1;exitY=0.5;exitDx=0;exitDy=0;startArrow=ERzeroToMany;startFill=0;entryX=0;entryY=0.5;entryDx=0;entryDy=0;" parent="1" source="nEEwgD9YWX4Y2Av0-MTW-9" target="nEEwgD9YWX4Y2Av0-MTW-15" edge="1">
          <mxGeometry width="50" height="50" relative="1" as="geometry">
            <mxPoint x="900" y="439.76" as="sourcePoint" />
            <mxPoint x="1120" y="400" as="targetPoint" />
          </mxGeometry>
        </mxCell>
        <mxCell id="nEEwgD9YWX4Y2Av0-MTW-18" value="" style="endArrow=none;html=1;rounded=0;exitX=0;exitY=0.5;exitDx=0;exitDy=0;startArrow=ERmandOne;startFill=0;entryX=1;entryY=0.5;entryDx=0;entryDy=0;" parent="1" source="nEEwgD9YWX4Y2Av0-MTW-10" target="nEEwgD9YWX4Y2Av0-MTW-15" edge="1">
          <mxGeometry width="50" height="50" relative="1" as="geometry">
            <mxPoint x="1040" y="500" as="sourcePoint" />
            <mxPoint x="1040" y="550" as="targetPoint" />
          </mxGeometry>
        </mxCell>
        <mxCell id="nEEwgD9YWX4Y2Av0-MTW-19" value="" style="endArrow=none;html=1;rounded=0;exitX=0.5;exitY=1;exitDx=0;exitDy=0;startArrow=ERoneToMany;startFill=0;entryX=0.5;entryY=0;entryDx=0;entryDy=0;" parent="1" source="nEEwgD9YWX4Y2Av0-MTW-2" target="nEEwgD9YWX4Y2Av0-MTW-16" edge="1">
          <mxGeometry width="50" height="50" relative="1" as="geometry">
            <mxPoint x="1039.52" y="175" as="sourcePoint" />
            <mxPoint x="1039.52" y="225" as="targetPoint" />
          </mxGeometry>
        </mxCell>
        <mxCell id="nEEwgD9YWX4Y2Av0-MTW-20" value="&lt;u&gt;ID&lt;/u&gt;" style="ellipse;whiteSpace=wrap;html=1;" parent="1" vertex="1">
          <mxGeometry x="1440" y="260" width="80" height="40" as="geometry" />
        </mxCell>
        <mxCell id="nEEwgD9YWX4Y2Av0-MTW-21" value="" style="endArrow=none;html=1;rounded=0;exitX=0.5;exitY=0;exitDx=0;exitDy=0;startArrow=ERzeroToMany;startFill=0;entryX=0.5;entryY=1;entryDx=0;entryDy=0;" parent="1" source="nEEwgD9YWX4Y2Av0-MTW-9" target="nEEwgD9YWX4Y2Av0-MTW-16" edge="1">
          <mxGeometry width="50" height="50" relative="1" as="geometry">
            <mxPoint x="1050" y="210" as="sourcePoint" />
            <mxPoint x="1050" y="250" as="targetPoint" />
          </mxGeometry>
        </mxCell>
        <mxCell id="nEEwgD9YWX4Y2Av0-MTW-22" value="&lt;u&gt;isbn&lt;/u&gt;" style="ellipse;whiteSpace=wrap;html=1;" parent="1" vertex="1">
          <mxGeometry x="840" width="80" height="40" as="geometry" />
        </mxCell>
        <mxCell id="nEEwgD9YWX4Y2Av0-MTW-23" value="&lt;u&gt;title&lt;/u&gt;" style="ellipse;whiteSpace=wrap;html=1;" parent="1" vertex="1">
          <mxGeometry x="990" y="-50" width="80" height="40" as="geometry" />
        </mxCell>
        <mxCell id="nEEwgD9YWX4Y2Av0-MTW-24" value="" style="endArrow=none;html=1;rounded=0;entryX=0;entryY=1;entryDx=0;entryDy=0;exitX=0.5;exitY=0;exitDx=0;exitDy=0;" parent="1" source="nEEwgD9YWX4Y2Av0-MTW-2" target="nEEwgD9YWX4Y2Av0-MTW-6" edge="1">
          <mxGeometry width="50" height="50" relative="1" as="geometry">
            <mxPoint x="960" y="90" as="sourcePoint" />
            <mxPoint x="1010" y="40" as="targetPoint" />
          </mxGeometry>
        </mxCell>
        <mxCell id="nEEwgD9YWX4Y2Av0-MTW-25" value="" style="endArrow=none;html=1;rounded=0;entryX=0.5;entryY=1;entryDx=0;entryDy=0;exitX=0.5;exitY=0;exitDx=0;exitDy=0;" parent="1" source="nEEwgD9YWX4Y2Av0-MTW-2" target="nEEwgD9YWX4Y2Av0-MTW-23" edge="1">
          <mxGeometry width="50" height="50" relative="1" as="geometry">
            <mxPoint x="1030" y="136" as="sourcePoint" />
            <mxPoint x="1112" y="60" as="targetPoint" />
          </mxGeometry>
        </mxCell>
        <mxCell id="nEEwgD9YWX4Y2Av0-MTW-26" value="" style="endArrow=none;html=1;rounded=0;entryX=0.5;entryY=1;entryDx=0;entryDy=0;exitX=0.5;exitY=0;exitDx=0;exitDy=0;" parent="1" source="nEEwgD9YWX4Y2Av0-MTW-2" target="nEEwgD9YWX4Y2Av0-MTW-14" edge="1">
          <mxGeometry width="50" height="50" relative="1" as="geometry">
            <mxPoint x="910" y="120" as="sourcePoint" />
            <mxPoint x="960" as="targetPoint" />
          </mxGeometry>
        </mxCell>
        <mxCell id="nEEwgD9YWX4Y2Av0-MTW-27" value="" style="endArrow=none;html=1;rounded=0;entryX=1;entryY=1;entryDx=0;entryDy=0;exitX=0.5;exitY=0;exitDx=0;exitDy=0;" parent="1" source="nEEwgD9YWX4Y2Av0-MTW-2" target="nEEwgD9YWX4Y2Av0-MTW-22" edge="1">
          <mxGeometry width="50" height="50" relative="1" as="geometry">
            <mxPoint x="830" y="170" as="sourcePoint" />
            <mxPoint x="880" y="50" as="targetPoint" />
          </mxGeometry>
        </mxCell>
        <mxCell id="nEEwgD9YWX4Y2Av0-MTW-28" value="name" style="ellipse;whiteSpace=wrap;html=1;" parent="1" vertex="1">
          <mxGeometry x="1440" y="440" width="80" height="40" as="geometry" />
        </mxCell>
        <mxCell id="nEEwgD9YWX4Y2Av0-MTW-29" value="" style="ellipse;whiteSpace=wrap;html=1;" parent="1" vertex="1">
          <mxGeometry x="1475" y="320" width="80" height="40" as="geometry" />
        </mxCell>
        <mxCell id="nEEwgD9YWX4Y2Av0-MTW-32" value="" style="ellipse;whiteSpace=wrap;html=1;" parent="1" vertex="1">
          <mxGeometry x="1475" y="380" width="80" height="40" as="geometry" />
        </mxCell>
        <mxCell id="nEEwgD9YWX4Y2Av0-MTW-30" value="phone_No." style="ellipse;whiteSpace=wrap;html=1;" parent="1" vertex="1">
          <mxGeometry x="1480" y="385" width="70" height="30" as="geometry" />
        </mxCell>
        <mxCell id="nEEwgD9YWX4Y2Av0-MTW-31" value="ORDER" style="rhombus;whiteSpace=wrap;html=1;" parent="1" vertex="1">
          <mxGeometry x="920" y="340" width="120" height="60" as="geometry" />
        </mxCell>
        <mxCell id="nEEwgD9YWX4Y2Av0-MTW-33" value="AUTHORS" style="rounded=0;whiteSpace=wrap;html=1;" parent="1" vertex="1">
          <mxGeometry x="1285" y="115" width="110" height="50" as="geometry" />
        </mxCell>
        <mxCell id="nEEwgD9YWX4Y2Av0-MTW-34" value="" style="endArrow=none;html=1;rounded=0;entryX=0;entryY=1;entryDx=0;entryDy=0;exitX=1;exitY=0.5;exitDx=0;exitDy=0;" parent="1" source="nEEwgD9YWX4Y2Av0-MTW-10" target="nEEwgD9YWX4Y2Av0-MTW-20" edge="1">
          <mxGeometry width="50" height="50" relative="1" as="geometry">
            <mxPoint x="1310" y="310" as="sourcePoint" />
            <mxPoint x="1360" y="260" as="targetPoint" />
          </mxGeometry>
        </mxCell>
        <mxCell id="nEEwgD9YWX4Y2Av0-MTW-35" value="" style="endArrow=none;html=1;rounded=0;entryX=1;entryY=0.5;entryDx=0;entryDy=0;exitX=0;exitY=0;exitDx=0;exitDy=0;" parent="1" source="nEEwgD9YWX4Y2Av0-MTW-28" target="nEEwgD9YWX4Y2Av0-MTW-10" edge="1">
          <mxGeometry width="50" height="50" relative="1" as="geometry">
            <mxPoint x="1440" y="436" as="sourcePoint" />
            <mxPoint x="1492" y="360" as="targetPoint" />
          </mxGeometry>
        </mxCell>
        <mxCell id="nEEwgD9YWX4Y2Av0-MTW-36" value="" style="endArrow=none;html=1;rounded=0;entryX=1;entryY=0.5;entryDx=0;entryDy=0;exitX=0;exitY=0.5;exitDx=0;exitDy=0;" parent="1" source="nEEwgD9YWX4Y2Av0-MTW-32" target="nEEwgD9YWX4Y2Av0-MTW-10" edge="1">
          <mxGeometry width="50" height="50" relative="1" as="geometry">
            <mxPoint x="1475" y="440" as="sourcePoint" />
            <mxPoint x="1423" y="364" as="targetPoint" />
          </mxGeometry>
        </mxCell>
        <mxCell id="nEEwgD9YWX4Y2Av0-MTW-37" value="" style="endArrow=none;html=1;rounded=0;entryX=1;entryY=0.5;entryDx=0;entryDy=0;exitX=0;exitY=0.5;exitDx=0;exitDy=0;" parent="1" source="nEEwgD9YWX4Y2Av0-MTW-29" target="nEEwgD9YWX4Y2Av0-MTW-10" edge="1">
          <mxGeometry width="50" height="50" relative="1" as="geometry">
            <mxPoint x="1485" y="385" as="sourcePoint" />
            <mxPoint x="1410" y="355" as="targetPoint" />
          </mxGeometry>
        </mxCell>
        <mxCell id="nEEwgD9YWX4Y2Av0-MTW-38" value="have" style="rhombus;whiteSpace=wrap;html=1;" parent="1" vertex="1">
          <mxGeometry x="1125" y="105" width="70" height="70" as="geometry" />
        </mxCell>
        <mxCell id="nEEwgD9YWX4Y2Av0-MTW-39" value="order date" style="ellipse;whiteSpace=wrap;html=1;" parent="1" vertex="1">
          <mxGeometry x="1040" y="640" width="80" height="40" as="geometry" />
        </mxCell>
        <mxCell id="nEEwgD9YWX4Y2Av0-MTW-40" value="selling price at&amp;nbsp;&lt;div&gt;the time of the order&lt;/div&gt;" style="ellipse;whiteSpace=wrap;html=1;" parent="1" vertex="1">
          <mxGeometry x="915" y="680" width="130" height="70" as="geometry" />
        </mxCell>
        <mxCell id="nEEwgD9YWX4Y2Av0-MTW-41" value="" style="ellipse;whiteSpace=wrap;html=1;" parent="1" vertex="1">
          <mxGeometry x="835" y="640" width="80" height="40" as="geometry" />
        </mxCell>
        <mxCell id="nEEwgD9YWX4Y2Av0-MTW-42" value="" style="endArrow=none;html=1;rounded=0;entryX=0;entryY=0.5;entryDx=0;entryDy=0;exitX=0.5;exitY=1;exitDx=0;exitDy=0;" parent="1" source="nEEwgD9YWX4Y2Av0-MTW-47" target="nEEwgD9YWX4Y2Av0-MTW-39" edge="1">
          <mxGeometry width="50" height="50" relative="1" as="geometry">
            <mxPoint x="890" y="340" as="sourcePoint" />
            <mxPoint x="970" y="130" as="targetPoint" />
          </mxGeometry>
        </mxCell>
        <mxCell id="nEEwgD9YWX4Y2Av0-MTW-43" value="" style="endArrow=none;html=1;rounded=0;exitX=1;exitY=0.5;exitDx=0;exitDy=0;entryX=0.5;entryY=1;entryDx=0;entryDy=0;" parent="1" source="nEEwgD9YWX4Y2Av0-MTW-41" target="nEEwgD9YWX4Y2Av0-MTW-47" edge="1">
          <mxGeometry width="50" height="50" relative="1" as="geometry">
            <mxPoint x="990" y="490" as="sourcePoint" />
            <mxPoint x="900" y="480" as="targetPoint" />
          </mxGeometry>
        </mxCell>
        <mxCell id="nEEwgD9YWX4Y2Av0-MTW-44" value="" style="endArrow=none;html=1;rounded=0;exitX=0.5;exitY=0;exitDx=0;exitDy=0;entryX=0.5;entryY=1;entryDx=0;entryDy=0;" parent="1" source="nEEwgD9YWX4Y2Av0-MTW-40" target="nEEwgD9YWX4Y2Av0-MTW-47" edge="1">
          <mxGeometry width="50" height="50" relative="1" as="geometry">
            <mxPoint x="1020" y="540" as="sourcePoint" />
            <mxPoint x="900" y="410" as="targetPoint" />
          </mxGeometry>
        </mxCell>
        <mxCell id="nEEwgD9YWX4Y2Av0-MTW-46" value="email" style="ellipse;whiteSpace=wrap;html=1;" parent="1" vertex="1">
          <mxGeometry x="1480" y="325" width="70" height="30" as="geometry" />
        </mxCell>
        <mxCell id="nEEwgD9YWX4Y2Av0-MTW-47" value="" style="rounded=0;whiteSpace=wrap;html=1;" parent="1" vertex="1">
          <mxGeometry x="920" y="560" width="120" height="60" as="geometry" />
        </mxCell>
        <mxCell id="nEEwgD9YWX4Y2Av0-MTW-49" value="ORDER DETAIL" style="rounded=0;whiteSpace=wrap;html=1;" parent="1" vertex="1">
          <mxGeometry x="925" y="565" width="110" height="50" as="geometry" />
        </mxCell>
        <mxCell id="nEEwgD9YWX4Y2Av0-MTW-50" value="" style="rhombus;whiteSpace=wrap;html=1;" parent="1" vertex="1">
          <mxGeometry x="940" y="440" width="80" height="80" as="geometry" />
        </mxCell>
        <mxCell id="nEEwgD9YWX4Y2Av0-MTW-51" value="have" style="rhombus;whiteSpace=wrap;html=1;" parent="1" vertex="1">
          <mxGeometry x="945" y="445" width="70" height="70" as="geometry" />
        </mxCell>
        <mxCell id="nEEwgD9YWX4Y2Av0-MTW-52" value="quantity" style="ellipse;whiteSpace=wrap;html=1;" parent="1" vertex="1">
          <mxGeometry x="840" y="645" width="70" height="30" as="geometry" />
        </mxCell>
        <mxCell id="nEEwgD9YWX4Y2Av0-MTW-53" value="" style="endArrow=ERmandOne;html=1;rounded=0;exitX=0.5;exitY=0;exitDx=0;exitDy=0;startArrow=none;startFill=0;entryX=0.5;entryY=1;entryDx=0;entryDy=0;endFill=0;" parent="1" source="nEEwgD9YWX4Y2Av0-MTW-50" target="nEEwgD9YWX4Y2Av0-MTW-31" edge="1">
          <mxGeometry width="50" height="50" relative="1" as="geometry">
            <mxPoint x="1047.5" y="500" as="sourcePoint" />
            <mxPoint x="1132.5" y="500" as="targetPoint" />
          </mxGeometry>
        </mxCell>
        <mxCell id="nEEwgD9YWX4Y2Av0-MTW-54" value="" style="endArrow=ERmandOne;html=1;rounded=0;exitX=0.5;exitY=1;exitDx=0;exitDy=0;startArrow=none;startFill=0;entryX=0.5;entryY=0;entryDx=0;entryDy=0;endFill=0;" parent="1" source="nEEwgD9YWX4Y2Av0-MTW-50" target="nEEwgD9YWX4Y2Av0-MTW-47" edge="1">
          <mxGeometry width="50" height="50" relative="1" as="geometry">
            <mxPoint x="1050" y="490" as="sourcePoint" />
            <mxPoint x="1050" y="450" as="targetPoint" />
          </mxGeometry>
        </mxCell>
        <mxCell id="nEEwgD9YWX4Y2Av0-MTW-55" value="CUSTOMER" style="rounded=0;whiteSpace=wrap;html=1;" parent="1" vertex="1">
          <mxGeometry x="1920" y="200" width="120" height="60" as="geometry" />
        </mxCell>
        <mxCell id="nEEwgD9YWX4Y2Av0-MTW-56" value="ITEM" style="rounded=0;whiteSpace=wrap;html=1;" parent="1" vertex="1">
          <mxGeometry x="2280" y="200" width="120" height="60" as="geometry" />
        </mxCell>
        <mxCell id="nEEwgD9YWX4Y2Av0-MTW-57" value="ship" style="rhombus;whiteSpace=wrap;html=1;" parent="1" vertex="1">
          <mxGeometry x="2120" y="290" width="80" height="80" as="geometry" />
        </mxCell>
        <mxCell id="nEEwgD9YWX4Y2Av0-MTW-59" value="" style="rounded=0;whiteSpace=wrap;html=1;" parent="1" vertex="1">
          <mxGeometry x="2100" y="50" width="120" height="60" as="geometry" />
        </mxCell>
        <mxCell id="nEEwgD9YWX4Y2Av0-MTW-61" value="" style="endArrow=none;html=1;rounded=0;exitX=0.5;exitY=0;exitDx=0;exitDy=0;startArrow=ERzeroToOne;startFill=0;" parent="1" source="nEEwgD9YWX4Y2Av0-MTW-55" edge="1">
          <mxGeometry width="50" height="50" relative="1" as="geometry">
            <mxPoint x="1970" y="180" as="sourcePoint" />
            <mxPoint x="1980" y="120" as="targetPoint" />
          </mxGeometry>
        </mxCell>
        <mxCell id="nEEwgD9YWX4Y2Av0-MTW-62" value="" style="endArrow=ERzeroToMany;html=1;rounded=0;entryX=0.5;entryY=1;entryDx=0;entryDy=0;endFill=0;" parent="1" target="nEEwgD9YWX4Y2Av0-MTW-55" edge="1">
          <mxGeometry width="50" height="50" relative="1" as="geometry">
            <mxPoint x="1980" y="330" as="sourcePoint" />
            <mxPoint x="1979.76" y="275" as="targetPoint" />
          </mxGeometry>
        </mxCell>
        <mxCell id="nEEwgD9YWX4Y2Av0-MTW-63" value="" style="endArrow=none;html=1;rounded=0;exitX=0.5;exitY=0;exitDx=0;exitDy=0;startArrow=ERzeroToMany;startFill=0;" parent="1" source="nEEwgD9YWX4Y2Av0-MTW-56" edge="1">
          <mxGeometry width="50" height="50" relative="1" as="geometry">
            <mxPoint x="2350" y="190" as="sourcePoint" />
            <mxPoint x="2339.76" y="120" as="targetPoint" />
          </mxGeometry>
        </mxCell>
        <mxCell id="nEEwgD9YWX4Y2Av0-MTW-64" value="" style="endArrow=ERzeroToMany;html=1;rounded=0;entryX=0.5;entryY=1;entryDx=0;entryDy=0;startArrow=none;startFill=0;endFill=0;" parent="1" target="nEEwgD9YWX4Y2Av0-MTW-56" edge="1">
          <mxGeometry width="50" height="50" relative="1" as="geometry">
            <mxPoint x="2340" y="330" as="sourcePoint" />
            <mxPoint x="2339.76" y="280" as="targetPoint" />
          </mxGeometry>
        </mxCell>
        <mxCell id="nEEwgD9YWX4Y2Av0-MTW-67" value="" style="endArrow=none;html=1;rounded=0;exitX=0;exitY=0.5;exitDx=0;exitDy=0;" parent="1" edge="1">
          <mxGeometry width="50" height="50" relative="1" as="geometry">
            <mxPoint x="2120" y="330" as="sourcePoint" />
            <mxPoint x="1980" y="330" as="targetPoint" />
          </mxGeometry>
        </mxCell>
        <mxCell id="nEEwgD9YWX4Y2Av0-MTW-68" value="" style="endArrow=none;html=1;rounded=0;exitX=0;exitY=0.5;exitDx=0;exitDy=0;" parent="1" edge="1">
          <mxGeometry width="50" height="50" relative="1" as="geometry">
            <mxPoint x="2340" y="330" as="sourcePoint" />
            <mxPoint x="2200" y="330" as="targetPoint" />
          </mxGeometry>
        </mxCell>
        <mxCell id="nEEwgD9YWX4Y2Av0-MTW-69" value="use" style="rhombus;whiteSpace=wrap;html=1;" parent="1" vertex="1">
          <mxGeometry x="1940" y="40" width="80" height="80" as="geometry" />
        </mxCell>
        <mxCell id="nEEwgD9YWX4Y2Av0-MTW-70" value="track" style="rhombus;whiteSpace=wrap;html=1;" parent="1" vertex="1">
          <mxGeometry x="2300" y="40" width="80" height="80" as="geometry" />
        </mxCell>
        <mxCell id="nEEwgD9YWX4Y2Av0-MTW-71" value="" style="endArrow=ERzeroToOne;html=1;rounded=0;exitX=1;exitY=0.5;exitDx=0;exitDy=0;endFill=0;entryX=0;entryY=0.5;entryDx=0;entryDy=0;" parent="1" source="nEEwgD9YWX4Y2Av0-MTW-69" target="nEEwgD9YWX4Y2Av0-MTW-59" edge="1">
          <mxGeometry width="50" height="50" relative="1" as="geometry">
            <mxPoint x="2100" y="220" as="sourcePoint" />
            <mxPoint x="2060" y="110" as="targetPoint" />
          </mxGeometry>
        </mxCell>
        <mxCell id="nEEwgD9YWX4Y2Av0-MTW-72" value="" style="endArrow=none;html=1;rounded=0;exitX=1;exitY=0.5;exitDx=0;exitDy=0;entryX=0;entryY=0.5;entryDx=0;entryDy=0;startArrow=ERmandOne;startFill=0;" parent="1" source="nEEwgD9YWX4Y2Av0-MTW-59" target="nEEwgD9YWX4Y2Av0-MTW-70" edge="1">
          <mxGeometry width="50" height="50" relative="1" as="geometry">
            <mxPoint x="2300" y="110" as="sourcePoint" />
            <mxPoint x="2220" y="110" as="targetPoint" />
          </mxGeometry>
        </mxCell>
        <mxCell id="nEEwgD9YWX4Y2Av0-MTW-73" value="TRACKER" style="rhombus;whiteSpace=wrap;html=1;" parent="1" vertex="1">
          <mxGeometry x="2100" y="50" width="120" height="60" as="geometry" />
        </mxCell>
        <mxCell id="nEEwgD9YWX4Y2Av0-MTW-74" value="ITEM DETAIL" style="rounded=0;whiteSpace=wrap;html=1;" parent="1" vertex="1">
          <mxGeometry x="2100" y="-280" width="120" height="60" as="geometry" />
        </mxCell>
        <mxCell id="nEEwgD9YWX4Y2Av0-MTW-76" value="store" style="rhombus;whiteSpace=wrap;html=1;" parent="1" vertex="1">
          <mxGeometry x="2120" y="-120" width="80" height="80" as="geometry" />
        </mxCell>
        <mxCell id="nEEwgD9YWX4Y2Av0-MTW-77" value="" style="endArrow=ERmandOne;html=1;rounded=0;exitX=0.5;exitY=1;exitDx=0;exitDy=0;entryX=0.5;entryY=0;entryDx=0;entryDy=0;startArrow=none;startFill=0;endFill=0;" parent="1" source="nEEwgD9YWX4Y2Av0-MTW-76" target="nEEwgD9YWX4Y2Av0-MTW-73" edge="1">
          <mxGeometry width="50" height="50" relative="1" as="geometry">
            <mxPoint x="2190" y="-30" as="sourcePoint" />
            <mxPoint x="2270" y="-30" as="targetPoint" />
          </mxGeometry>
        </mxCell>
        <mxCell id="nEEwgD9YWX4Y2Av0-MTW-78" value="" style="endArrow=none;html=1;rounded=0;exitX=0.5;exitY=1;exitDx=0;exitDy=0;entryX=0.5;entryY=0;entryDx=0;entryDy=0;startArrow=ERzeroToMany;startFill=0;endFill=0;" parent="1" source="nEEwgD9YWX4Y2Av0-MTW-74" target="nEEwgD9YWX4Y2Av0-MTW-76" edge="1">
          <mxGeometry width="50" height="50" relative="1" as="geometry">
            <mxPoint x="2270" y="-110" as="sourcePoint" />
            <mxPoint x="2270" y="-60" as="targetPoint" />
          </mxGeometry>
        </mxCell>
        <mxCell id="nEEwgD9YWX4Y2Av0-MTW-80" value="Location" style="ellipse;whiteSpace=wrap;html=1;" parent="1" vertex="1">
          <mxGeometry x="2120" y="-370" width="80" height="40" as="geometry" />
        </mxCell>
        <mxCell id="nEEwgD9YWX4Y2Av0-MTW-81" value="truck" style="ellipse;whiteSpace=wrap;html=1;" parent="1" vertex="1">
          <mxGeometry x="2040" y="-450" width="80" height="40" as="geometry" />
        </mxCell>
        <mxCell id="nEEwgD9YWX4Y2Av0-MTW-82" value="plane" style="ellipse;whiteSpace=wrap;html=1;" parent="1" vertex="1">
          <mxGeometry x="2197.5" y="-450" width="80" height="40" as="geometry" />
        </mxCell>
        <mxCell id="nEEwgD9YWX4Y2Av0-MTW-83" value="" style="ellipse;whiteSpace=wrap;html=1;" parent="1" vertex="1">
          <mxGeometry x="2115" y="-500" width="90" height="50" as="geometry" />
        </mxCell>
        <mxCell id="nEEwgD9YWX4Y2Av0-MTW-84" value="Warehouse&lt;div&gt;Name&lt;/div&gt;" style="ellipse;whiteSpace=wrap;html=1;" parent="1" vertex="1">
          <mxGeometry x="2117.5" y="-497.5" width="85" height="45" as="geometry" />
        </mxCell>
        <mxCell id="nEEwgD9YWX4Y2Av0-MTW-87" value="" style="endArrow=none;html=1;rounded=0;entryX=0.5;entryY=1;entryDx=0;entryDy=0;exitX=0.5;exitY=0;exitDx=0;exitDy=0;" parent="1" source="nEEwgD9YWX4Y2Av0-MTW-74" target="nEEwgD9YWX4Y2Av0-MTW-80" edge="1">
          <mxGeometry width="50" height="50" relative="1" as="geometry">
            <mxPoint x="2220" y="-270" as="sourcePoint" />
            <mxPoint x="2270" y="-320" as="targetPoint" />
          </mxGeometry>
        </mxCell>
        <mxCell id="nEEwgD9YWX4Y2Av0-MTW-88" value="" style="endArrow=none;html=1;rounded=0;entryX=0.5;entryY=1;entryDx=0;entryDy=0;exitX=0.5;exitY=0;exitDx=0;exitDy=0;" parent="1" source="nEEwgD9YWX4Y2Av0-MTW-80" target="nEEwgD9YWX4Y2Av0-MTW-81" edge="1">
          <mxGeometry width="50" height="50" relative="1" as="geometry">
            <mxPoint x="2050" y="-340" as="sourcePoint" />
            <mxPoint x="2050" y="-390" as="targetPoint" />
          </mxGeometry>
        </mxCell>
        <mxCell id="nEEwgD9YWX4Y2Av0-MTW-89" value="" style="endArrow=none;html=1;rounded=0;entryX=0.5;entryY=1;entryDx=0;entryDy=0;exitX=0.5;exitY=0;exitDx=0;exitDy=0;" parent="1" source="nEEwgD9YWX4Y2Av0-MTW-80" target="nEEwgD9YWX4Y2Av0-MTW-82" edge="1">
          <mxGeometry width="50" height="50" relative="1" as="geometry">
            <mxPoint x="2290" y="-340" as="sourcePoint" />
            <mxPoint x="2210" y="-380" as="targetPoint" />
          </mxGeometry>
        </mxCell>
        <mxCell id="nEEwgD9YWX4Y2Av0-MTW-90" value="" style="endArrow=none;html=1;rounded=0;entryX=0.5;entryY=1;entryDx=0;entryDy=0;exitX=0.5;exitY=0;exitDx=0;exitDy=0;" parent="1" source="nEEwgD9YWX4Y2Av0-MTW-80" target="nEEwgD9YWX4Y2Av0-MTW-83" edge="1">
          <mxGeometry width="50" height="50" relative="1" as="geometry">
            <mxPoint x="2250" y="-340" as="sourcePoint" />
            <mxPoint x="2328" y="-380" as="targetPoint" />
          </mxGeometry>
        </mxCell>
        <mxCell id="nEEwgD9YWX4Y2Av0-MTW-91" value="History Location" style="rounded=0;whiteSpace=wrap;html=1;" parent="1" vertex="1">
          <mxGeometry x="1580" y="-280" width="120" height="60" as="geometry" />
        </mxCell>
        <mxCell id="nEEwgD9YWX4Y2Av0-MTW-92" value="Current&lt;div&gt;Location&lt;/div&gt;" style="rounded=0;whiteSpace=wrap;html=1;" parent="1" vertex="1">
          <mxGeometry x="1840" y="-280" width="120" height="60" as="geometry" />
        </mxCell>
        <mxCell id="P0E_cOeHFz3GRKBg2NQs-1" value="LABORATORY" style="rounded=0;whiteSpace=wrap;html=1;" vertex="1" parent="1">
          <mxGeometry x="40" y="1370" width="120" height="60" as="geometry" />
        </mxCell>
        <mxCell id="P0E_cOeHFz3GRKBg2NQs-2" value="CHEMIST" style="rounded=0;whiteSpace=wrap;html=1;" vertex="1" parent="1">
          <mxGeometry x="340" y="1370" width="120" height="60" as="geometry" />
        </mxCell>
        <mxCell id="P0E_cOeHFz3GRKBg2NQs-3" value="&lt;span style=&quot;font-weight: normal;&quot;&gt;PROJECT&lt;/span&gt;" style="rounded=0;whiteSpace=wrap;html=1;fontStyle=1" vertex="1" parent="1">
          <mxGeometry x="620" y="1370" width="120" height="60" as="geometry" />
        </mxCell>
        <mxCell id="P0E_cOeHFz3GRKBg2NQs-4" value="" style="rounded=0;whiteSpace=wrap;html=1;" vertex="1" parent="1">
          <mxGeometry x="340" y="1580" width="120" height="60" as="geometry" />
        </mxCell>
        <mxCell id="P0E_cOeHFz3GRKBg2NQs-5" value="&lt;div&gt;One LAB can have one or many CHEMISTS&lt;/div&gt;&lt;div&gt;One CHEMISTS can work on one or more PROJECTS&lt;/div&gt;&lt;div&gt;One CHEMIST must have at least one PROJECT&lt;/div&gt;&lt;div&gt;One CHEMIST must have at least one EQUIPMENT&lt;/div&gt;" style="text;html=1;align=left;verticalAlign=middle;whiteSpace=wrap;rounded=0;" vertex="1" parent="1">
          <mxGeometry x="40" y="1120" width="310" height="60" as="geometry" />
        </mxCell>
        <mxCell id="P0E_cOeHFz3GRKBg2NQs-6" value="have" style="rhombus;whiteSpace=wrap;html=1;" vertex="1" parent="1">
          <mxGeometry x="210" y="1360" width="80" height="80" as="geometry" />
        </mxCell>
        <mxCell id="P0E_cOeHFz3GRKBg2NQs-7" value="" style="endArrow=none;html=1;rounded=0;entryX=0;entryY=0.5;entryDx=0;entryDy=0;exitX=1;exitY=0.5;exitDx=0;exitDy=0;startArrow=ERzeroToMany;startFill=0;" edge="1" parent="1" source="P0E_cOeHFz3GRKBg2NQs-1" target="P0E_cOeHFz3GRKBg2NQs-6">
          <mxGeometry width="50" height="50" relative="1" as="geometry">
            <mxPoint x="110" y="1550" as="sourcePoint" />
            <mxPoint x="160" y="1500" as="targetPoint" />
          </mxGeometry>
        </mxCell>
        <mxCell id="P0E_cOeHFz3GRKBg2NQs-8" value="" style="endArrow=ERoneToMany;html=1;rounded=0;entryX=0;entryY=0.5;entryDx=0;entryDy=0;exitX=1;exitY=0.5;exitDx=0;exitDy=0;endFill=0;" edge="1" parent="1" source="P0E_cOeHFz3GRKBg2NQs-6" target="P0E_cOeHFz3GRKBg2NQs-2">
          <mxGeometry width="50" height="50" relative="1" as="geometry">
            <mxPoint x="280" y="1420" as="sourcePoint" />
            <mxPoint x="330" y="1420" as="targetPoint" />
          </mxGeometry>
        </mxCell>
        <mxCell id="P0E_cOeHFz3GRKBg2NQs-9" value="work" style="rhombus;whiteSpace=wrap;html=1;" vertex="1" parent="1">
          <mxGeometry x="500" y="1360" width="80" height="80" as="geometry" />
        </mxCell>
        <mxCell id="P0E_cOeHFz3GRKBg2NQs-10" value="" style="rhombus;whiteSpace=wrap;html=1;" vertex="1" parent="1">
          <mxGeometry x="360" y="1470" width="80" height="80" as="geometry" />
        </mxCell>
        <mxCell id="P0E_cOeHFz3GRKBg2NQs-11" value="&lt;u&gt;EmployeeID&lt;/u&gt;" style="ellipse;whiteSpace=wrap;html=1;" vertex="1" parent="1">
          <mxGeometry x="280" y="1290" width="80" height="40" as="geometry" />
        </mxCell>
        <mxCell id="P0E_cOeHFz3GRKBg2NQs-12" value="Name" style="ellipse;whiteSpace=wrap;html=1;" vertex="1" parent="1">
          <mxGeometry x="360" y="1250" width="80" height="40" as="geometry" />
        </mxCell>
        <mxCell id="P0E_cOeHFz3GRKBg2NQs-15" value="" style="group" vertex="1" connectable="0" parent="1">
          <mxGeometry x="440" y="1290" width="80" height="40" as="geometry" />
        </mxCell>
        <mxCell id="P0E_cOeHFz3GRKBg2NQs-14" value="" style="ellipse;whiteSpace=wrap;html=1;" vertex="1" parent="P0E_cOeHFz3GRKBg2NQs-15">
          <mxGeometry width="80" height="40" as="geometry" />
        </mxCell>
        <mxCell id="P0E_cOeHFz3GRKBg2NQs-13" value="PhoneNo." style="ellipse;whiteSpace=wrap;html=1;" vertex="1" parent="P0E_cOeHFz3GRKBg2NQs-15">
          <mxGeometry x="5" y="5" width="70" height="30" as="geometry" />
        </mxCell>
        <mxCell id="P0E_cOeHFz3GRKBg2NQs-16" value="&lt;u&gt;ProjectID&lt;/u&gt;" style="ellipse;whiteSpace=wrap;html=1;" vertex="1" parent="1">
          <mxGeometry x="600" y="1290" width="80" height="40" as="geometry" />
        </mxCell>
        <mxCell id="P0E_cOeHFz3GRKBg2NQs-17" value="StartDate" style="ellipse;whiteSpace=wrap;html=1;" vertex="1" parent="1">
          <mxGeometry x="690" y="1290" width="80" height="40" as="geometry" />
        </mxCell>
        <mxCell id="P0E_cOeHFz3GRKBg2NQs-18" value="&lt;u&gt;SerialNo.&lt;/u&gt;" style="ellipse;whiteSpace=wrap;html=1;" vertex="1" parent="1">
          <mxGeometry x="320" y="1680" width="80" height="40" as="geometry" />
        </mxCell>
        <mxCell id="P0E_cOeHFz3GRKBg2NQs-19" value="Cost" style="ellipse;whiteSpace=wrap;html=1;" vertex="1" parent="1">
          <mxGeometry x="410" y="1680" width="80" height="40" as="geometry" />
        </mxCell>
        <mxCell id="P0E_cOeHFz3GRKBg2NQs-20" value="&lt;u&gt;LabID&lt;/u&gt;" style="ellipse;whiteSpace=wrap;html=1;" vertex="1" parent="1">
          <mxGeometry x="20" y="1470" width="80" height="40" as="geometry" />
        </mxCell>
        <mxCell id="P0E_cOeHFz3GRKBg2NQs-21" value="" style="endArrow=ERoneToMany;html=1;rounded=0;entryX=0;entryY=0.5;entryDx=0;entryDy=0;exitX=1;exitY=0.5;exitDx=0;exitDy=0;endFill=0;" edge="1" parent="1" source="P0E_cOeHFz3GRKBg2NQs-9" target="P0E_cOeHFz3GRKBg2NQs-3">
          <mxGeometry width="50" height="50" relative="1" as="geometry">
            <mxPoint x="540" y="1469.76" as="sourcePoint" />
            <mxPoint x="590" y="1469.76" as="targetPoint" />
          </mxGeometry>
        </mxCell>
        <mxCell id="P0E_cOeHFz3GRKBg2NQs-23" value="" style="endArrow=ERoneToMany;html=1;rounded=0;entryX=1;entryY=0.5;entryDx=0;entryDy=0;exitX=0;exitY=0.5;exitDx=0;exitDy=0;endFill=0;" edge="1" parent="1" source="P0E_cOeHFz3GRKBg2NQs-9" target="P0E_cOeHFz3GRKBg2NQs-2">
          <mxGeometry width="50" height="50" relative="1" as="geometry">
            <mxPoint x="540" y="1469.76" as="sourcePoint" />
            <mxPoint x="580" y="1469.76" as="targetPoint" />
          </mxGeometry>
        </mxCell>
        <mxCell id="P0E_cOeHFz3GRKBg2NQs-24" value="" style="endArrow=ERmandOne;html=1;rounded=0;entryX=0.5;entryY=0;entryDx=0;entryDy=0;exitX=0.5;exitY=1;exitDx=0;exitDy=0;endFill=0;" edge="1" parent="1" source="P0E_cOeHFz3GRKBg2NQs-10" target="P0E_cOeHFz3GRKBg2NQs-4">
          <mxGeometry width="50" height="50" relative="1" as="geometry">
            <mxPoint x="480" y="1550" as="sourcePoint" />
            <mxPoint x="440" y="1550" as="targetPoint" />
          </mxGeometry>
        </mxCell>
        <mxCell id="P0E_cOeHFz3GRKBg2NQs-25" value="" style="endArrow=ERmandOne;html=1;rounded=0;entryX=0.5;entryY=1;entryDx=0;entryDy=0;exitX=0.5;exitY=0;exitDx=0;exitDy=0;endFill=0;" edge="1" parent="1" source="P0E_cOeHFz3GRKBg2NQs-10" target="P0E_cOeHFz3GRKBg2NQs-2">
          <mxGeometry width="50" height="50" relative="1" as="geometry">
            <mxPoint x="540" y="1420" as="sourcePoint" />
            <mxPoint x="500" y="1420" as="targetPoint" />
          </mxGeometry>
        </mxCell>
        <mxCell id="P0E_cOeHFz3GRKBg2NQs-26" value="" style="endArrow=none;html=1;rounded=0;entryX=0.5;entryY=1;entryDx=0;entryDy=0;exitX=0.5;exitY=0;exitDx=0;exitDy=0;" edge="1" parent="1" source="P0E_cOeHFz3GRKBg2NQs-20" target="P0E_cOeHFz3GRKBg2NQs-1">
          <mxGeometry width="50" height="50" relative="1" as="geometry">
            <mxPoint x="30" y="1480" as="sourcePoint" />
            <mxPoint x="80" y="1430" as="targetPoint" />
          </mxGeometry>
        </mxCell>
        <mxCell id="P0E_cOeHFz3GRKBg2NQs-27" value="" style="endArrow=none;html=1;rounded=0;entryX=1;entryY=1;entryDx=0;entryDy=0;exitX=0.5;exitY=0;exitDx=0;exitDy=0;" edge="1" parent="1" source="P0E_cOeHFz3GRKBg2NQs-2" target="P0E_cOeHFz3GRKBg2NQs-11">
          <mxGeometry width="50" height="50" relative="1" as="geometry">
            <mxPoint x="230" y="1500" as="sourcePoint" />
            <mxPoint x="230" y="1460" as="targetPoint" />
          </mxGeometry>
        </mxCell>
        <mxCell id="P0E_cOeHFz3GRKBg2NQs-28" value="" style="endArrow=none;html=1;rounded=0;entryX=0.5;entryY=1;entryDx=0;entryDy=0;exitX=0.5;exitY=0;exitDx=0;exitDy=0;" edge="1" parent="1" source="P0E_cOeHFz3GRKBg2NQs-2" target="P0E_cOeHFz3GRKBg2NQs-12">
          <mxGeometry width="50" height="50" relative="1" as="geometry">
            <mxPoint x="442" y="1416" as="sourcePoint" />
            <mxPoint x="390" y="1370" as="targetPoint" />
          </mxGeometry>
        </mxCell>
        <mxCell id="P0E_cOeHFz3GRKBg2NQs-29" value="" style="endArrow=none;html=1;rounded=0;entryX=0;entryY=1;entryDx=0;entryDy=0;exitX=0.5;exitY=0;exitDx=0;exitDy=0;" edge="1" parent="1" source="P0E_cOeHFz3GRKBg2NQs-2" target="P0E_cOeHFz3GRKBg2NQs-14">
          <mxGeometry width="50" height="50" relative="1" as="geometry">
            <mxPoint x="400" y="1440" as="sourcePoint" />
            <mxPoint x="400" y="1360" as="targetPoint" />
          </mxGeometry>
        </mxCell>
        <mxCell id="P0E_cOeHFz3GRKBg2NQs-30" value="" style="endArrow=none;html=1;rounded=0;entryX=0.5;entryY=1;entryDx=0;entryDy=0;exitX=0.5;exitY=0;exitDx=0;exitDy=0;" edge="1" parent="1" source="P0E_cOeHFz3GRKBg2NQs-3" target="P0E_cOeHFz3GRKBg2NQs-16">
          <mxGeometry width="50" height="50" relative="1" as="geometry">
            <mxPoint x="520" y="1496" as="sourcePoint" />
            <mxPoint x="572" y="1450" as="targetPoint" />
          </mxGeometry>
        </mxCell>
        <mxCell id="P0E_cOeHFz3GRKBg2NQs-31" value="" style="endArrow=none;html=1;rounded=0;entryX=0.5;entryY=0;entryDx=0;entryDy=0;exitX=0.5;exitY=1;exitDx=0;exitDy=0;" edge="1" parent="1" source="P0E_cOeHFz3GRKBg2NQs-17" target="P0E_cOeHFz3GRKBg2NQs-3">
          <mxGeometry width="50" height="50" relative="1" as="geometry">
            <mxPoint x="710" y="1390" as="sourcePoint" />
            <mxPoint x="670" y="1350" as="targetPoint" />
          </mxGeometry>
        </mxCell>
        <mxCell id="P0E_cOeHFz3GRKBg2NQs-32" value="EQUIPMENT" style="rounded=0;whiteSpace=wrap;html=1;" vertex="1" parent="1">
          <mxGeometry x="345" y="1585" width="110" height="50" as="geometry" />
        </mxCell>
        <mxCell id="P0E_cOeHFz3GRKBg2NQs-33" value="" style="endArrow=none;html=1;rounded=0;exitX=0.5;exitY=0;exitDx=0;exitDy=0;entryX=0.5;entryY=1;entryDx=0;entryDy=0;" edge="1" parent="1" source="P0E_cOeHFz3GRKBg2NQs-19" target="P0E_cOeHFz3GRKBg2NQs-4">
          <mxGeometry width="50" height="50" relative="1" as="geometry">
            <mxPoint x="440" y="1680" as="sourcePoint" />
            <mxPoint x="400" y="1650" as="targetPoint" />
          </mxGeometry>
        </mxCell>
        <mxCell id="P0E_cOeHFz3GRKBg2NQs-34" value="" style="endArrow=none;html=1;rounded=0;exitX=0.5;exitY=0;exitDx=0;exitDy=0;entryX=0.5;entryY=1;entryDx=0;entryDy=0;" edge="1" parent="1" source="P0E_cOeHFz3GRKBg2NQs-18" target="P0E_cOeHFz3GRKBg2NQs-4">
          <mxGeometry width="50" height="50" relative="1" as="geometry">
            <mxPoint x="510" y="1730" as="sourcePoint" />
            <mxPoint x="460" y="1680" as="targetPoint" />
          </mxGeometry>
        </mxCell>
        <mxCell id="P0E_cOeHFz3GRKBg2NQs-35" value="use" style="rhombus;whiteSpace=wrap;html=1;" vertex="1" parent="1">
          <mxGeometry x="365" y="1475" width="70" height="70" as="geometry" />
        </mxCell>
        <mxCell id="P0E_cOeHFz3GRKBg2NQs-36" value="&lt;span style=&quot;font-weight: normal;&quot;&gt;COURSE&lt;/span&gt;" style="rounded=0;whiteSpace=wrap;html=1;fontStyle=1" vertex="1" parent="1">
          <mxGeometry x="1000" y="1320" width="120" height="60" as="geometry" />
        </mxCell>
        <mxCell id="P0E_cOeHFz3GRKBg2NQs-37" value="SectionNum" style="ellipse;whiteSpace=wrap;html=1;" vertex="1" parent="1">
          <mxGeometry x="1280" y="1240" width="80" height="40" as="geometry" />
        </mxCell>
        <mxCell id="P0E_cOeHFz3GRKBg2NQs-41" value="&lt;span style=&quot;font-weight: 400;&quot;&gt;SECTION&lt;/span&gt;" style="rounded=0;whiteSpace=wrap;html=1;fontStyle=1" vertex="1" parent="1">
          <mxGeometry x="1320" y="1320" width="120" height="60" as="geometry" />
        </mxCell>
        <mxCell id="P0E_cOeHFz3GRKBg2NQs-42" value="have" style="rhombus;whiteSpace=wrap;html=1;" vertex="1" parent="1">
          <mxGeometry x="1180" y="1310" width="80" height="80" as="geometry" />
        </mxCell>
        <mxCell id="P0E_cOeHFz3GRKBg2NQs-43" value="" style="endArrow=ERzeroToMany;html=1;rounded=0;entryX=0;entryY=0.5;entryDx=0;entryDy=0;exitX=1;exitY=0.5;exitDx=0;exitDy=0;endFill=0;" edge="1" parent="1" source="P0E_cOeHFz3GRKBg2NQs-42" target="P0E_cOeHFz3GRKBg2NQs-41">
          <mxGeometry width="50" height="50" relative="1" as="geometry">
            <mxPoint x="1255" y="1389.43" as="sourcePoint" />
            <mxPoint x="1295" y="1389.43" as="targetPoint" />
          </mxGeometry>
        </mxCell>
        <mxCell id="P0E_cOeHFz3GRKBg2NQs-44" value="" style="endArrow=ERmandOne;html=1;rounded=0;entryX=1;entryY=0.5;entryDx=0;entryDy=0;exitX=0;exitY=0.5;exitDx=0;exitDy=0;endFill=0;" edge="1" parent="1" source="P0E_cOeHFz3GRKBg2NQs-42" target="P0E_cOeHFz3GRKBg2NQs-36">
          <mxGeometry width="50" height="50" relative="1" as="geometry">
            <mxPoint x="1200" y="1439.71" as="sourcePoint" />
            <mxPoint x="1260" y="1439.71" as="targetPoint" />
          </mxGeometry>
        </mxCell>
        <mxCell id="P0E_cOeHFz3GRKBg2NQs-45" value="SemesterID" style="ellipse;whiteSpace=wrap;html=1;" vertex="1" parent="1">
          <mxGeometry x="1400" y="1240" width="80" height="40" as="geometry" />
        </mxCell>
        <mxCell id="P0E_cOeHFz3GRKBg2NQs-46" value="Semester" style="ellipse;whiteSpace=wrap;html=1;" vertex="1" parent="1">
          <mxGeometry x="1340" y="1180" width="80" height="40" as="geometry" />
        </mxCell>
        <mxCell id="P0E_cOeHFz3GRKBg2NQs-47" value="Year" style="ellipse;whiteSpace=wrap;html=1;" vertex="1" parent="1">
          <mxGeometry x="1460" y="1180" width="80" height="40" as="geometry" />
        </mxCell>
        <mxCell id="P0E_cOeHFz3GRKBg2NQs-48" value="&lt;u&gt;CourseID&lt;/u&gt;" style="ellipse;whiteSpace=wrap;html=1;" vertex="1" parent="1">
          <mxGeometry x="960" y="1240" width="80" height="40" as="geometry" />
        </mxCell>
        <mxCell id="P0E_cOeHFz3GRKBg2NQs-49" value="" style="endArrow=none;html=1;rounded=0;entryX=0.5;entryY=1;entryDx=0;entryDy=0;exitX=0.5;exitY=0;exitDx=0;exitDy=0;" edge="1" parent="1" source="P0E_cOeHFz3GRKBg2NQs-36" target="P0E_cOeHFz3GRKBg2NQs-48">
          <mxGeometry width="50" height="50" relative="1" as="geometry">
            <mxPoint x="1130" y="1270" as="sourcePoint" />
            <mxPoint x="1180" y="1220" as="targetPoint" />
          </mxGeometry>
        </mxCell>
        <mxCell id="P0E_cOeHFz3GRKBg2NQs-50" value="" style="endArrow=none;html=1;rounded=0;entryX=0.5;entryY=1;entryDx=0;entryDy=0;exitX=0.5;exitY=0;exitDx=0;exitDy=0;" edge="1" parent="1" source="P0E_cOeHFz3GRKBg2NQs-41" target="P0E_cOeHFz3GRKBg2NQs-37">
          <mxGeometry width="50" height="50" relative="1" as="geometry">
            <mxPoint x="1379.71" y="1310" as="sourcePoint" />
            <mxPoint x="1379.71" y="1270" as="targetPoint" />
          </mxGeometry>
        </mxCell>
        <mxCell id="P0E_cOeHFz3GRKBg2NQs-51" value="" style="endArrow=none;html=1;rounded=0;entryX=0.5;entryY=1;entryDx=0;entryDy=0;exitX=0.5;exitY=0;exitDx=0;exitDy=0;" edge="1" parent="1" source="P0E_cOeHFz3GRKBg2NQs-41" target="P0E_cOeHFz3GRKBg2NQs-45">
          <mxGeometry width="50" height="50" relative="1" as="geometry">
            <mxPoint x="1440" y="1330" as="sourcePoint" />
            <mxPoint x="1380" y="1290" as="targetPoint" />
          </mxGeometry>
        </mxCell>
        <mxCell id="P0E_cOeHFz3GRKBg2NQs-52" value="" style="endArrow=none;html=1;rounded=0;entryX=0;entryY=1;entryDx=0;entryDy=0;exitX=0.5;exitY=0;exitDx=0;exitDy=0;" edge="1" parent="1" source="P0E_cOeHFz3GRKBg2NQs-45" target="P0E_cOeHFz3GRKBg2NQs-47">
          <mxGeometry width="50" height="50" relative="1" as="geometry">
            <mxPoint x="1470" y="1340" as="sourcePoint" />
            <mxPoint x="1530" y="1300" as="targetPoint" />
          </mxGeometry>
        </mxCell>
        <mxCell id="P0E_cOeHFz3GRKBg2NQs-53" value="" style="endArrow=none;html=1;rounded=0;entryX=1;entryY=1;entryDx=0;entryDy=0;exitX=0.5;exitY=0;exitDx=0;exitDy=0;" edge="1" parent="1" source="P0E_cOeHFz3GRKBg2NQs-45" target="P0E_cOeHFz3GRKBg2NQs-46">
          <mxGeometry width="50" height="50" relative="1" as="geometry">
            <mxPoint x="1480" y="1266" as="sourcePoint" />
            <mxPoint x="1512" y="1240" as="targetPoint" />
          </mxGeometry>
        </mxCell>
        <mxCell id="P0E_cOeHFz3GRKBg2NQs-54" value="One COURSE can have more than one SECTION or may not have any SECTION." style="text;html=1;align=left;verticalAlign=middle;whiteSpace=wrap;rounded=0;" vertex="1" parent="1">
          <mxGeometry x="880" y="1120" width="445" height="30" as="geometry" />
        </mxCell>
        <mxCell id="P0E_cOeHFz3GRKBg2NQs-55" value="CourseName" style="ellipse;whiteSpace=wrap;html=1;" vertex="1" parent="1">
          <mxGeometry x="1080" y="1240" width="80" height="40" as="geometry" />
        </mxCell>
        <mxCell id="P0E_cOeHFz3GRKBg2NQs-56" value="" style="endArrow=none;html=1;rounded=0;entryX=0.5;entryY=1;entryDx=0;entryDy=0;exitX=0.5;exitY=0;exitDx=0;exitDy=0;" edge="1" parent="1" source="P0E_cOeHFz3GRKBg2NQs-36" target="P0E_cOeHFz3GRKBg2NQs-55">
          <mxGeometry width="50" height="50" relative="1" as="geometry">
            <mxPoint x="1090" y="1340" as="sourcePoint" />
            <mxPoint x="1050" y="1300" as="targetPoint" />
          </mxGeometry>
        </mxCell>
        <mxCell id="P0E_cOeHFz3GRKBg2NQs-58" value="Units" style="ellipse;whiteSpace=wrap;html=1;" vertex="1" parent="1">
          <mxGeometry x="1020" y="1200" width="80" height="40" as="geometry" />
        </mxCell>
        <mxCell id="P0E_cOeHFz3GRKBg2NQs-59" value="" style="endArrow=none;html=1;rounded=0;entryX=0.5;entryY=1;entryDx=0;entryDy=0;exitX=0.5;exitY=0;exitDx=0;exitDy=0;" edge="1" parent="1" source="P0E_cOeHFz3GRKBg2NQs-36" target="P0E_cOeHFz3GRKBg2NQs-58">
          <mxGeometry width="50" height="50" relative="1" as="geometry">
            <mxPoint x="1100" y="1330" as="sourcePoint" />
            <mxPoint x="1150" y="1290" as="targetPoint" />
          </mxGeometry>
        </mxCell>
        <mxCell id="P0E_cOeHFz3GRKBg2NQs-63" value="&lt;div&gt;One HOSPITAL can have one or many PHYSICIANS&lt;/div&gt;&lt;div&gt;One PATIENT can be admitted to HOSPITAL by PHYSICIANS&lt;/div&gt;&lt;div&gt;One PATIENT must be treated at least one PHYSICIANS&lt;/div&gt;&lt;div&gt;One PHYSICIAN may treat more than one PATIENTS or may not treat any&amp;nbsp;&lt;span style=&quot;background-color: transparent; color: light-dark(rgb(0, 0, 0), rgb(255, 255, 255));&quot;&gt;PATIENTS&lt;/span&gt;&lt;span style=&quot;background-color: transparent; color: light-dark(rgb(0, 0, 0), rgb(255, 255, 255));&quot;&gt;.&lt;/span&gt;&lt;/div&gt;&lt;div&gt;One PATIENT may be treated by more than one PHYSICIAN.&lt;/div&gt;" style="text;html=1;align=left;verticalAlign=middle;whiteSpace=wrap;rounded=0;" vertex="1" parent="1">
          <mxGeometry x="1720" y="1120" width="470" height="70" as="geometry" />
        </mxCell>
        <mxCell id="P0E_cOeHFz3GRKBg2NQs-64" value="&lt;span style=&quot;font-weight: normal;&quot;&gt;HOSPITAL&lt;/span&gt;" style="rounded=0;whiteSpace=wrap;html=1;fontStyle=1" vertex="1" parent="1">
          <mxGeometry x="1760" y="1360" width="120" height="60" as="geometry" />
        </mxCell>
        <mxCell id="P0E_cOeHFz3GRKBg2NQs-65" value="&lt;span style=&quot;font-weight: normal;&quot;&gt;PHYSICIAN&lt;/span&gt;" style="rounded=0;whiteSpace=wrap;html=1;fontStyle=1" vertex="1" parent="1">
          <mxGeometry x="2070" y="1360" width="120" height="60" as="geometry" />
        </mxCell>
        <mxCell id="P0E_cOeHFz3GRKBg2NQs-66" value="&lt;span style=&quot;font-weight: normal;&quot;&gt;PATIENT&lt;/span&gt;" style="rounded=0;whiteSpace=wrap;html=1;fontStyle=1" vertex="1" parent="1">
          <mxGeometry x="2370" y="1580" width="120" height="60" as="geometry" />
        </mxCell>
        <mxCell id="P0E_cOeHFz3GRKBg2NQs-69" value="has" style="rhombus;whiteSpace=wrap;html=1;" vertex="1" parent="1">
          <mxGeometry x="1940" y="1350" width="80" height="80" as="geometry" />
        </mxCell>
        <mxCell id="P0E_cOeHFz3GRKBg2NQs-70" value="" style="group" vertex="1" connectable="0" parent="1">
          <mxGeometry x="2370" y="1360" width="120" height="60" as="geometry" />
        </mxCell>
        <mxCell id="P0E_cOeHFz3GRKBg2NQs-67" value="" style="rounded=0;whiteSpace=wrap;html=1;fontStyle=1" vertex="1" parent="P0E_cOeHFz3GRKBg2NQs-70">
          <mxGeometry width="120" height="60" as="geometry" />
        </mxCell>
        <mxCell id="P0E_cOeHFz3GRKBg2NQs-68" value="TREATMENT" style="rhombus;whiteSpace=wrap;html=1;" vertex="1" parent="P0E_cOeHFz3GRKBg2NQs-70">
          <mxGeometry width="120" height="60" as="geometry" />
        </mxCell>
        <mxCell id="P0E_cOeHFz3GRKBg2NQs-71" value="" style="endArrow=ERoneToMany;html=1;rounded=0;entryX=0;entryY=0.5;entryDx=0;entryDy=0;exitX=1;exitY=0.5;exitDx=0;exitDy=0;endFill=0;" edge="1" parent="1" source="P0E_cOeHFz3GRKBg2NQs-69" target="P0E_cOeHFz3GRKBg2NQs-65">
          <mxGeometry width="50" height="50" relative="1" as="geometry">
            <mxPoint x="2000" y="1500" as="sourcePoint" />
            <mxPoint x="2050" y="1450" as="targetPoint" />
          </mxGeometry>
        </mxCell>
        <mxCell id="P0E_cOeHFz3GRKBg2NQs-72" value="" style="endArrow=ERmandOne;html=1;rounded=0;entryX=1;entryY=0.5;entryDx=0;entryDy=0;exitX=0;exitY=0.5;exitDx=0;exitDy=0;endFill=0;" edge="1" parent="1" source="P0E_cOeHFz3GRKBg2NQs-69" target="P0E_cOeHFz3GRKBg2NQs-64">
          <mxGeometry width="50" height="50" relative="1" as="geometry">
            <mxPoint x="1890" y="1459.71" as="sourcePoint" />
            <mxPoint x="1940" y="1459.71" as="targetPoint" />
          </mxGeometry>
        </mxCell>
        <mxCell id="P0E_cOeHFz3GRKBg2NQs-73" value="treats" style="rhombus;whiteSpace=wrap;html=1;" vertex="1" parent="1">
          <mxGeometry x="2240" y="1350" width="80" height="80" as="geometry" />
        </mxCell>
        <mxCell id="P0E_cOeHFz3GRKBg2NQs-74" value="get" style="rhombus;whiteSpace=wrap;html=1;" vertex="1" parent="1">
          <mxGeometry x="2390" y="1460" width="80" height="80" as="geometry" />
        </mxCell>
        <mxCell id="P0E_cOeHFz3GRKBg2NQs-75" value="&lt;u&gt;Hospital_ID&lt;/u&gt;" style="ellipse;whiteSpace=wrap;html=1;" vertex="1" parent="1">
          <mxGeometry x="1720" y="1280" width="80" height="40" as="geometry" />
        </mxCell>
        <mxCell id="P0E_cOeHFz3GRKBg2NQs-76" value="HospitalName" style="ellipse;whiteSpace=wrap;html=1;" vertex="1" parent="1">
          <mxGeometry x="1840" y="1280" width="80" height="40" as="geometry" />
        </mxCell>
        <mxCell id="P0E_cOeHFz3GRKBg2NQs-77" value="Physician&lt;div&gt;Name&lt;/div&gt;" style="ellipse;whiteSpace=wrap;html=1;" vertex="1" parent="1">
          <mxGeometry x="2090" y="1240" width="80" height="40" as="geometry" />
        </mxCell>
        <mxCell id="P0E_cOeHFz3GRKBg2NQs-78" value="&lt;u&gt;Physician&lt;span style=&quot;background-color: transparent; color: light-dark(rgb(0, 0, 0), rgb(255, 255, 255));&quot;&gt;ID&lt;/span&gt;&lt;/u&gt;" style="ellipse;whiteSpace=wrap;html=1;" vertex="1" parent="1">
          <mxGeometry x="2020" y="1280" width="80" height="40" as="geometry" />
        </mxCell>
        <mxCell id="P0E_cOeHFz3GRKBg2NQs-80" value="&lt;span style=&quot;font-size:11.0pt;mso-bidi-font-size:14.0pt;&lt;br/&gt;line-height:115%;font-family:&amp;quot;Calibri&amp;quot;,sans-serif;mso-ascii-theme-font:minor-latin;&lt;br/&gt;mso-fareast-font-family:Calibri;mso-fareast-theme-font:minor-latin;mso-hansi-theme-font:&lt;br/&gt;minor-latin;mso-bidi-font-family:&amp;quot;Cordia New&amp;quot;;mso-bidi-theme-font:minor-bidi;&lt;br/&gt;mso-ansi-language:EN-US;mso-fareast-language:EN-US;mso-bidi-language:TH&quot;&gt;Specialty&lt;/span&gt;" style="ellipse;whiteSpace=wrap;html=1;" vertex="1" parent="1">
          <mxGeometry x="2160" y="1280" width="80" height="40" as="geometry" />
        </mxCell>
        <mxCell id="P0E_cOeHFz3GRKBg2NQs-81" value="&lt;u&gt;Patient&lt;span style=&quot;background-color: transparent; color: light-dark(rgb(0, 0, 0), rgb(255, 255, 255));&quot;&gt;ID&lt;/span&gt;&lt;/u&gt;" style="ellipse;whiteSpace=wrap;html=1;" vertex="1" parent="1">
          <mxGeometry x="2340" y="1680" width="80" height="40" as="geometry" />
        </mxCell>
        <mxCell id="P0E_cOeHFz3GRKBg2NQs-82" value="&lt;span style=&quot;font-size:11.0pt;mso-bidi-font-size:14.0pt;&lt;br/&gt;line-height:115%;font-family:&amp;quot;Calibri&amp;quot;,sans-serif;mso-ascii-theme-font:minor-latin;&lt;br/&gt;mso-fareast-font-family:Calibri;mso-fareast-theme-font:minor-latin;mso-hansi-theme-font:&lt;br/&gt;minor-latin;mso-bidi-font-family:&amp;quot;Cordia New&amp;quot;;mso-bidi-theme-font:minor-bidi;&lt;br/&gt;mso-ansi-language:EN-US;mso-fareast-language:EN-US;mso-bidi-language:TH&quot;&gt;PatientName&lt;/span&gt;" style="ellipse;whiteSpace=wrap;html=1;" vertex="1" parent="1">
          <mxGeometry x="2440" y="1680" width="80" height="40" as="geometry" />
        </mxCell>
        <mxCell id="P0E_cOeHFz3GRKBg2NQs-83" value="&lt;span style=&quot;font-size:11.0pt;mso-bidi-font-size:14.0pt;&lt;br/&gt;line-height:115%;font-family:&amp;quot;Calibri&amp;quot;,sans-serif;mso-ascii-theme-font:minor-latin;&lt;br/&gt;mso-fareast-font-family:Calibri;mso-fareast-theme-font:minor-latin;mso-hansi-theme-font:&lt;br/&gt;minor-latin;mso-bidi-font-family:&amp;quot;Cordia New&amp;quot;;mso-bidi-theme-font:minor-bidi;&lt;br/&gt;mso-ansi-language:EN-US;mso-fareast-language:EN-US;mso-bidi-language:TH&quot;&gt;Date&lt;/span&gt;" style="ellipse;whiteSpace=wrap;html=1;" vertex="1" parent="1">
          <mxGeometry x="2320" y="1280" width="80" height="40" as="geometry" />
        </mxCell>
        <mxCell id="P0E_cOeHFz3GRKBg2NQs-84" value="&lt;span style=&quot;font-size:11.0pt;mso-bidi-font-size:14.0pt;&lt;br/&gt;line-height:115%;font-family:&amp;quot;Calibri&amp;quot;,sans-serif;mso-ascii-theme-font:minor-latin;&lt;br/&gt;mso-fareast-font-family:Calibri;mso-fareast-theme-font:minor-latin;mso-hansi-theme-font:&lt;br/&gt;minor-latin;mso-bidi-font-family:&amp;quot;Cordia New&amp;quot;;mso-bidi-theme-font:minor-bidi;&lt;br/&gt;mso-ansi-language:EN-US;mso-fareast-language:EN-US;mso-bidi-language:TH&quot;&gt;Time&lt;/span&gt;" style="ellipse;whiteSpace=wrap;html=1;" vertex="1" parent="1">
          <mxGeometry x="2390" y="1240" width="80" height="40" as="geometry" />
        </mxCell>
        <mxCell id="P0E_cOeHFz3GRKBg2NQs-85" value="&lt;span style=&quot;font-size:11.0pt;mso-bidi-font-size:14.0pt;&lt;br/&gt;line-height:115%;font-family:&amp;quot;Calibri&amp;quot;,sans-serif;mso-ascii-theme-font:minor-latin;&lt;br/&gt;mso-fareast-font-family:Calibri;mso-fareast-theme-font:minor-latin;mso-hansi-theme-font:&lt;br/&gt;minor-latin;mso-bidi-font-family:&amp;quot;Cordia New&amp;quot;;mso-bidi-theme-font:minor-bidi;&lt;br/&gt;mso-ansi-language:EN-US;mso-fareast-language:EN-US;mso-bidi-language:TH&quot;&gt;Results&lt;/span&gt;" style="ellipse;whiteSpace=wrap;html=1;" vertex="1" parent="1">
          <mxGeometry x="2460" y="1280" width="80" height="40" as="geometry" />
        </mxCell>
        <mxCell id="P0E_cOeHFz3GRKBg2NQs-86" value="" style="endArrow=none;html=1;rounded=0;entryX=0;entryY=1;entryDx=0;entryDy=0;exitX=0.5;exitY=0;exitDx=0;exitDy=0;" edge="1" parent="1" source="P0E_cOeHFz3GRKBg2NQs-64" target="P0E_cOeHFz3GRKBg2NQs-76">
          <mxGeometry width="50" height="50" relative="1" as="geometry">
            <mxPoint x="1780" y="1370" as="sourcePoint" />
            <mxPoint x="1830" y="1320" as="targetPoint" />
          </mxGeometry>
        </mxCell>
        <mxCell id="P0E_cOeHFz3GRKBg2NQs-87" value="" style="endArrow=none;html=1;rounded=0;entryX=1;entryY=1;entryDx=0;entryDy=0;exitX=0.5;exitY=0;exitDx=0;exitDy=0;" edge="1" parent="1" source="P0E_cOeHFz3GRKBg2NQs-64" target="P0E_cOeHFz3GRKBg2NQs-75">
          <mxGeometry width="50" height="50" relative="1" as="geometry">
            <mxPoint x="1870" y="1356" as="sourcePoint" />
            <mxPoint x="1902" y="1310" as="targetPoint" />
          </mxGeometry>
        </mxCell>
        <mxCell id="P0E_cOeHFz3GRKBg2NQs-88" value="" style="endArrow=none;html=1;rounded=0;entryX=1;entryY=1;entryDx=0;entryDy=0;exitX=0.5;exitY=0;exitDx=0;exitDy=0;" edge="1" parent="1" source="P0E_cOeHFz3GRKBg2NQs-65" target="P0E_cOeHFz3GRKBg2NQs-78">
          <mxGeometry width="50" height="50" relative="1" as="geometry">
            <mxPoint x="1982" y="1396" as="sourcePoint" />
            <mxPoint x="1950" y="1350" as="targetPoint" />
          </mxGeometry>
        </mxCell>
        <mxCell id="P0E_cOeHFz3GRKBg2NQs-89" value="" style="endArrow=none;html=1;rounded=0;entryX=0;entryY=1;entryDx=0;entryDy=0;exitX=0.5;exitY=0;exitDx=0;exitDy=0;" edge="1" parent="1" source="P0E_cOeHFz3GRKBg2NQs-65" target="P0E_cOeHFz3GRKBg2NQs-80">
          <mxGeometry width="50" height="50" relative="1" as="geometry">
            <mxPoint x="2172" y="1396" as="sourcePoint" />
            <mxPoint x="2130" y="1350" as="targetPoint" />
          </mxGeometry>
        </mxCell>
        <mxCell id="P0E_cOeHFz3GRKBg2NQs-90" value="" style="endArrow=none;html=1;rounded=0;entryX=0.5;entryY=1;entryDx=0;entryDy=0;exitX=0.5;exitY=0;exitDx=0;exitDy=0;" edge="1" parent="1" source="P0E_cOeHFz3GRKBg2NQs-65" target="P0E_cOeHFz3GRKBg2NQs-77">
          <mxGeometry width="50" height="50" relative="1" as="geometry">
            <mxPoint x="2160" y="1386" as="sourcePoint" />
            <mxPoint x="2202" y="1340" as="targetPoint" />
          </mxGeometry>
        </mxCell>
        <mxCell id="P0E_cOeHFz3GRKBg2NQs-91" value="" style="endArrow=none;html=1;rounded=0;entryX=1;entryY=1;entryDx=0;entryDy=0;exitX=0.5;exitY=0;exitDx=0;exitDy=0;" edge="1" parent="1" source="P0E_cOeHFz3GRKBg2NQs-67" target="P0E_cOeHFz3GRKBg2NQs-83">
          <mxGeometry width="50" height="50" relative="1" as="geometry">
            <mxPoint x="2140" y="1440" as="sourcePoint" />
            <mxPoint x="2140" y="1360" as="targetPoint" />
          </mxGeometry>
        </mxCell>
        <mxCell id="P0E_cOeHFz3GRKBg2NQs-92" value="" style="endArrow=none;html=1;rounded=0;entryX=0.5;entryY=1;entryDx=0;entryDy=0;exitX=0.5;exitY=0;exitDx=0;exitDy=0;" edge="1" parent="1" source="P0E_cOeHFz3GRKBg2NQs-67" target="P0E_cOeHFz3GRKBg2NQs-84">
          <mxGeometry width="50" height="50" relative="1" as="geometry">
            <mxPoint x="2482" y="1376" as="sourcePoint" />
            <mxPoint x="2440" y="1330" as="targetPoint" />
          </mxGeometry>
        </mxCell>
        <mxCell id="P0E_cOeHFz3GRKBg2NQs-93" value="" style="endArrow=none;html=1;rounded=0;entryX=0;entryY=1;entryDx=0;entryDy=0;exitX=0.5;exitY=0;exitDx=0;exitDy=0;" edge="1" parent="1" source="P0E_cOeHFz3GRKBg2NQs-68" target="P0E_cOeHFz3GRKBg2NQs-85">
          <mxGeometry width="50" height="50" relative="1" as="geometry">
            <mxPoint x="2450" y="1390" as="sourcePoint" />
            <mxPoint x="2450" y="1310" as="targetPoint" />
          </mxGeometry>
        </mxCell>
        <mxCell id="P0E_cOeHFz3GRKBg2NQs-96" value="" style="endArrow=none;html=1;rounded=0;entryX=0.5;entryY=1;entryDx=0;entryDy=0;exitX=0.5;exitY=0;exitDx=0;exitDy=0;" edge="1" parent="1" source="P0E_cOeHFz3GRKBg2NQs-81" target="P0E_cOeHFz3GRKBg2NQs-66">
          <mxGeometry width="50" height="50" relative="1" as="geometry">
            <mxPoint x="2340" y="1700" as="sourcePoint" />
            <mxPoint x="2390" y="1650" as="targetPoint" />
          </mxGeometry>
        </mxCell>
        <mxCell id="P0E_cOeHFz3GRKBg2NQs-97" value="" style="endArrow=none;html=1;rounded=0;entryX=0.5;entryY=1;entryDx=0;entryDy=0;exitX=0.5;exitY=0;exitDx=0;exitDy=0;" edge="1" parent="1" source="P0E_cOeHFz3GRKBg2NQs-82" target="P0E_cOeHFz3GRKBg2NQs-66">
          <mxGeometry width="50" height="50" relative="1" as="geometry">
            <mxPoint x="2430" y="1690" as="sourcePoint" />
            <mxPoint x="2480" y="1650" as="targetPoint" />
          </mxGeometry>
        </mxCell>
        <mxCell id="P0E_cOeHFz3GRKBg2NQs-98" value="&lt;span style=&quot;font-weight: 400;&quot;&gt;SECTION&lt;/span&gt;" style="rounded=0;whiteSpace=wrap;html=1;fontStyle=1" vertex="1" parent="1">
          <mxGeometry x="1325" y="1325" width="110" height="50" as="geometry" />
        </mxCell>
        <mxCell id="P0E_cOeHFz3GRKBg2NQs-99" value="has" style="rhombus;whiteSpace=wrap;html=1;" vertex="1" parent="1">
          <mxGeometry x="1185" y="1315" width="70" height="70" as="geometry" />
        </mxCell>
        <mxCell id="P0E_cOeHFz3GRKBg2NQs-101" value="" style="endArrow=ERzeroToMany;html=1;rounded=0;entryX=0;entryY=0.5;entryDx=0;entryDy=0;exitX=1;exitY=0.5;exitDx=0;exitDy=0;endFill=0;" edge="1" parent="1" source="P0E_cOeHFz3GRKBg2NQs-73" target="P0E_cOeHFz3GRKBg2NQs-68">
          <mxGeometry width="50" height="50" relative="1" as="geometry">
            <mxPoint x="2310" y="1450" as="sourcePoint" />
            <mxPoint x="2360" y="1450" as="targetPoint" />
          </mxGeometry>
        </mxCell>
        <mxCell id="P0E_cOeHFz3GRKBg2NQs-102" value="" style="endArrow=ERoneToMany;html=1;rounded=0;entryX=1;entryY=0.5;entryDx=0;entryDy=0;exitX=0;exitY=0.5;exitDx=0;exitDy=0;endFill=0;" edge="1" parent="1" source="P0E_cOeHFz3GRKBg2NQs-73" target="P0E_cOeHFz3GRKBg2NQs-65">
          <mxGeometry width="50" height="50" relative="1" as="geometry">
            <mxPoint x="2190" y="1460" as="sourcePoint" />
            <mxPoint x="2240" y="1460" as="targetPoint" />
          </mxGeometry>
        </mxCell>
        <mxCell id="P0E_cOeHFz3GRKBg2NQs-103" value="" style="endArrow=ERoneToMany;html=1;rounded=0;entryX=0.5;entryY=1;entryDx=0;entryDy=0;exitX=0.5;exitY=0;exitDx=0;exitDy=0;endFill=0;" edge="1" parent="1" source="P0E_cOeHFz3GRKBg2NQs-74" target="P0E_cOeHFz3GRKBg2NQs-68">
          <mxGeometry width="50" height="50" relative="1" as="geometry">
            <mxPoint x="2330" y="1480" as="sourcePoint" />
            <mxPoint x="2380" y="1480" as="targetPoint" />
          </mxGeometry>
        </mxCell>
        <mxCell id="P0E_cOeHFz3GRKBg2NQs-105" value="" style="endArrow=ERmandOne;html=1;rounded=0;exitX=0.5;exitY=1;exitDx=0;exitDy=0;endFill=0;entryX=0.5;entryY=0;entryDx=0;entryDy=0;" edge="1" parent="1" source="P0E_cOeHFz3GRKBg2NQs-74" target="P0E_cOeHFz3GRKBg2NQs-66">
          <mxGeometry width="50" height="50" relative="1" as="geometry">
            <mxPoint x="2310" y="1530" as="sourcePoint" />
            <mxPoint x="2340" y="1530" as="targetPoint" />
          </mxGeometry>
        </mxCell>
        <mxCell id="P0E_cOeHFz3GRKBg2NQs-106" value="&lt;span style=&quot;font-weight: normal;&quot;&gt;PATIENT&lt;/span&gt;" style="rounded=0;whiteSpace=wrap;html=1;fontStyle=1" vertex="1" parent="1">
          <mxGeometry x="2375" y="1585" width="110" height="50" as="geometry" />
        </mxCell>
        <mxCell id="P0E_cOeHFz3GRKBg2NQs-107" value="get" style="rhombus;whiteSpace=wrap;html=1;" vertex="1" parent="1">
          <mxGeometry x="2395" y="1465" width="70" height="70" as="geometry" />
        </mxCell>
        <mxCell id="P0E_cOeHFz3GRKBg2NQs-108" value="LabName" style="ellipse;whiteSpace=wrap;html=1;" vertex="1" parent="1">
          <mxGeometry x="100" y="1470" width="80" height="40" as="geometry" />
        </mxCell>
        <mxCell id="P0E_cOeHFz3GRKBg2NQs-109" value="" style="endArrow=none;html=1;rounded=0;entryX=0.5;entryY=1;entryDx=0;entryDy=0;exitX=0.5;exitY=0;exitDx=0;exitDy=0;" edge="1" parent="1" source="P0E_cOeHFz3GRKBg2NQs-108" target="P0E_cOeHFz3GRKBg2NQs-1">
          <mxGeometry width="50" height="50" relative="1" as="geometry">
            <mxPoint x="110" y="1470" as="sourcePoint" />
            <mxPoint x="150" y="1430" as="targetPoint" />
          </mxGeometry>
        </mxCell>
        <mxCell id="P0E_cOeHFz3GRKBg2NQs-110" value="admits" style="rhombus;whiteSpace=wrap;html=1;" vertex="1" parent="1">
          <mxGeometry x="2090" y="1570" width="80" height="80" as="geometry" />
        </mxCell>
        <mxCell id="P0E_cOeHFz3GRKBg2NQs-111" value="" style="endArrow=ERoneToMany;html=1;rounded=0;entryX=0;entryY=0.5;entryDx=0;entryDy=0;endFill=0;exitX=1;exitY=0.5;exitDx=0;exitDy=0;" edge="1" parent="1" source="P0E_cOeHFz3GRKBg2NQs-110" target="P0E_cOeHFz3GRKBg2NQs-66">
          <mxGeometry width="50" height="50" relative="1" as="geometry">
            <mxPoint x="2180" y="1610" as="sourcePoint" />
            <mxPoint x="2365" y="1634.6" as="targetPoint" />
          </mxGeometry>
        </mxCell>
        <mxCell id="P0E_cOeHFz3GRKBg2NQs-113" value="" style="endArrow=none;html=1;rounded=0;endFill=0;exitX=0.5;exitY=1;exitDx=0;exitDy=0;" edge="1" parent="1" source="P0E_cOeHFz3GRKBg2NQs-110">
          <mxGeometry width="50" height="50" relative="1" as="geometry">
            <mxPoint x="2020" y="1620" as="sourcePoint" />
            <mxPoint x="2130" y="1650" as="targetPoint" />
          </mxGeometry>
        </mxCell>
        <mxCell id="P0E_cOeHFz3GRKBg2NQs-114" value="" style="endArrow=ERmandOne;html=1;rounded=0;entryX=0.5;entryY=1;entryDx=0;entryDy=0;exitX=0.5;exitY=0;exitDx=0;exitDy=0;endFill=0;" edge="1" parent="1" source="P0E_cOeHFz3GRKBg2NQs-110" target="P0E_cOeHFz3GRKBg2NQs-65">
          <mxGeometry width="50" height="50" relative="1" as="geometry">
            <mxPoint x="2220" y="1450" as="sourcePoint" />
            <mxPoint x="2170" y="1450" as="targetPoint" />
          </mxGeometry>
        </mxCell>
        <mxCell id="P0E_cOeHFz3GRKBg2NQs-115" value="admits" style="rhombus;whiteSpace=wrap;html=1;" vertex="1" parent="1">
          <mxGeometry x="2095" y="1575" width="70" height="70" as="geometry" />
        </mxCell>
      </root>
    </mxGraphModel>
  </diagram>
</mxfile>
